<svg width="97" height="32" viewBox="0 0 97 32" fill="none" xmlns="http://www.w3.org/2000/svg">
<path fill-rule="evenodd" clip-rule="evenodd" d="M0 13.7175C0 26.271 13.6947 31.9771 13.6947 31.9771C13.6947 31.9771 27.3894 26.271 27.3894 13.7175C27.3894 6.15245 21.2581 0.0228271 13.6947 0.0228271C6.1313 0.0228271 0 6.15245 0 13.7175ZM13.6947 11.4797C12.5124 9.25516 9.89468 8.49286 7.84724 9.77673C5.79988 11.0606 5.09811 13.9092 6.28043 16.1382C8.2424 19.8293 13.6947 22.8473 13.6947 22.8473C13.6947 22.8473 19.147 19.8293 21.109 16.1382C22.2913 13.9092 21.5895 11.0606 19.5422 9.77673C17.4947 8.49286 14.877 9.25516 13.6947 11.4797Z" fill="url(#paint0_linear_370_3871)"/>
<path d="M90.3692 25.1262C88.8119 25.1262 87.4984 24.5104 86.4287 23.2789C85.3591 22.0473 84.8242 20.5758 84.8242 18.8644C84.8242 17.1531 85.3591 15.6816 86.4287 14.45C87.4984 13.2184 88.8119 12.6027 90.3692 12.6027C91.1242 12.6027 91.8007 12.7626 92.3984 13.0825C92.9962 13.4024 93.4524 13.7782 93.767 14.2101V12.8666H96.9996V24.8623H93.767V23.5188C93.4524 23.9506 92.9962 24.3265 92.3984 24.6464C91.8007 24.9663 91.1242 25.1262 90.3692 25.1262ZM88.8827 21.2156C89.4332 21.8234 90.1568 22.1273 91.0535 22.1273C91.9501 22.1273 92.6658 21.8234 93.2007 21.2156C93.7512 20.6078 94.0265 19.8241 94.0265 18.8644C94.0265 17.9048 93.7512 17.1211 93.2007 16.5133C92.6658 15.9055 91.9501 15.6016 91.0535 15.6016C90.1568 15.6016 89.4332 15.9055 88.8827 16.5133C88.3478 17.1211 88.0804 17.9048 88.0804 18.8644C88.0804 19.8241 88.3478 20.6078 88.8827 21.2156Z" fill="#2B2B2B"/>
<path d="M76.5147 25.1279C74.9574 25.1279 73.6439 24.5121 72.5742 23.2806C71.5046 22.049 70.9697 20.5775 70.9697 18.8661C70.9697 17.1547 71.5046 15.6832 72.5742 14.4517C73.6439 13.2201 74.9574 12.6043 76.5147 12.6043C77.2698 12.6043 77.9462 12.7643 78.5439 13.0842C79.1417 13.4041 79.5979 13.7799 79.9125 14.2118V6.87036H83.1451V24.864H79.9125V23.5205C79.5979 23.9523 79.1417 24.3282 78.5439 24.6481C77.9462 24.968 77.2698 25.1279 76.5147 25.1279ZM75.0282 21.2173C75.5787 21.8251 76.3023 22.129 77.199 22.129C78.0956 22.129 78.8113 21.8251 79.3462 21.2173C79.8967 20.6095 80.172 19.8258 80.172 18.8661C80.172 17.9065 79.8967 17.1227 79.3462 16.5149C78.8113 15.9072 78.0956 15.6033 77.199 15.6033C76.3023 15.6033 75.5787 15.9072 75.0282 16.5149C74.4933 17.1227 74.2259 17.9065 74.2259 18.8661C74.2259 19.8258 74.4933 20.6095 75.0282 21.2173Z" fill="#2B2B2B"/>
<path d="M63.5381 24.8628V12.8671H66.7707V14.7864C66.9752 14.1946 67.3448 13.7068 67.8797 13.3229C68.4302 12.9231 69.0359 12.7231 69.6965 12.7231C70.1055 12.7231 70.4673 12.7711 70.7819 12.8671V16.2019C70.2628 16.026 69.7752 15.938 69.319 15.938C68.5482 15.938 67.9269 16.2259 67.455 16.8017C66.9988 17.3615 66.7707 18.1372 66.7707 19.1289V24.8628H63.5381Z" fill="#2B2B2B"/>
<path d="M54.6684 25.1295C53.2684 25.1295 52.1751 24.6497 51.3886 23.69C50.6178 22.7304 50.2324 21.4428 50.2324 19.8274V12.8699H53.465V19.2756C53.465 21.1789 54.1336 22.1306 55.4707 22.1306C56.2257 22.1306 56.8156 21.8427 57.2403 21.2669C57.6808 20.6911 57.901 19.8434 57.901 18.7238V12.8699H61.1336V24.8656H57.901V23.4981C57.1774 24.5857 56.0999 25.1295 54.6684 25.1295Z" fill="#2B2B2B"/>
<path d="M43.173 25.1279C42.4179 25.1279 41.7337 24.968 41.1202 24.6481C40.5067 24.3282 40.0505 23.9523 39.7516 23.5205V24.864H36.519V6.87036H39.7516V14.2118C40.0505 13.7799 40.5067 13.4041 41.1202 13.0842C41.7337 12.7643 42.4179 12.6043 43.173 12.6043C44.7303 12.6043 46.0438 13.2201 47.1135 14.4517C48.1831 15.6832 48.718 17.1547 48.718 18.8661C48.718 20.5775 48.1831 22.049 47.1135 23.2806C46.0438 24.5121 44.7303 25.1279 43.173 25.1279ZM40.2943 21.2173C40.8449 21.8251 41.5685 22.129 42.4651 22.129C43.3618 22.129 44.0775 21.8251 44.6123 21.2173C45.1629 20.6095 45.4382 19.8258 45.4382 18.8661C45.4382 17.9065 45.1629 17.1227 44.6123 16.5149C44.0775 15.9072 43.3618 15.6033 42.4651 15.6033C41.5685 15.6033 40.8449 15.9072 40.2943 16.5149C39.7595 17.1227 39.4921 17.9065 39.4921 18.8661C39.4921 19.8258 39.7595 20.6095 40.2943 21.2173Z" fill="#2B2B2B"/>
<defs>
<linearGradient id="paint0_linear_370_3871" x1="13.6947" y1="0.0228271" x2="13.6947" y2="31.9771" gradientUnits="userSpaceOnUse">
<stop stop-color="#E8BC1D"/>
<stop offset="1" stop-color="#FF719B"/>
</linearGradient>
</defs>
</svg>
